<mxfile host="app.diagrams.net" modified="2022-11-21T14:45:18.627Z" agent="5.0 (Windows NT 10.0; Win64; x64) AppleWebKit/537.36 (KHTML, like Gecko) Chrome/107.0.0.0 Safari/537.36 Edg/107.0.1418.52" etag="qZYiUkPVs58V4_EfU9fi" version="20.0.3" type="github">
  <diagram id="85g586EzvK8vTw8IZWv8" name="Page-1">
    <mxGraphModel dx="1722" dy="954" grid="1" gridSize="10" guides="1" tooltips="1" connect="1" arrows="1" fold="1" page="1" pageScale="1" pageWidth="827" pageHeight="1169" math="1" shadow="0">
      <root>
        <mxCell id="0" />
        <mxCell id="1" parent="0" />
        <mxCell id="PyO2Ggy3WTRFLJfQddXv-44" value="" style="verticalLabelPosition=bottom;verticalAlign=top;html=1;shape=mxgraph.basic.pie;startAngle=0.1875;endAngle=0.3125;shadow=0;fillColor=#dae8fc;strokeColor=#6c8ebf;dashed=1;rotation=-15;opacity=30;" vertex="1" parent="1">
          <mxGeometry x="290" y="250" width="300" height="300" as="geometry" />
        </mxCell>
        <mxCell id="PyO2Ggy3WTRFLJfQddXv-4" value="" style="endArrow=classic;html=1;rounded=0;" edge="1" parent="1">
          <mxGeometry width="50" height="50" relative="1" as="geometry">
            <mxPoint x="160" y="400" as="sourcePoint" />
            <mxPoint x="720" y="400" as="targetPoint" />
          </mxGeometry>
        </mxCell>
        <mxCell id="PyO2Ggy3WTRFLJfQddXv-5" value="" style="endArrow=classic;html=1;rounded=0;" edge="1" parent="1">
          <mxGeometry width="50" height="50" relative="1" as="geometry">
            <mxPoint x="440" y="680" as="sourcePoint" />
            <mxPoint x="440" y="120" as="targetPoint" />
          </mxGeometry>
        </mxCell>
        <mxCell id="PyO2Ggy3WTRFLJfQddXv-25" value="$$\frac{2\pi}{K}$$" style="text;html=1;strokeColor=none;fillColor=none;align=center;verticalAlign=middle;whiteSpace=wrap;rounded=0;shadow=0;sketch=0;" vertex="1" parent="1">
          <mxGeometry x="1329.99" y="300" width="20" height="30" as="geometry" />
        </mxCell>
        <mxCell id="PyO2Ggy3WTRFLJfQddXv-7" value="" style="endArrow=classic;html=1;rounded=0;strokeColor=#FF0000;" edge="1" parent="1">
          <mxGeometry width="50" height="50" relative="1" as="geometry">
            <mxPoint x="439.99847443559804" y="399.99847443559804" as="sourcePoint" />
            <mxPoint x="661.998474435598" y="338.99847443559804" as="targetPoint" />
          </mxGeometry>
        </mxCell>
        <mxCell id="PyO2Ggy3WTRFLJfQddXv-19" value="" style="endArrow=none;dashed=1;html=1;rounded=0;strokeColor=#b85450;fillColor=#f8cecc;opacity=30;entryX=0.961;entryY=0.691;entryDx=0;entryDy=0;entryPerimeter=0;" edge="1" parent="1">
          <mxGeometry width="50" height="50" relative="1" as="geometry">
            <mxPoint x="439.99847443559804" y="399.99847443559804" as="sourcePoint" />
            <mxPoint x="588.4603294958615" y="419.2145508318164" as="targetPoint" />
          </mxGeometry>
        </mxCell>
        <mxCell id="PyO2Ggy3WTRFLJfQddXv-43" value="$$h_r$$" style="text;html=1;strokeColor=none;fillColor=none;align=center;verticalAlign=middle;whiteSpace=wrap;rounded=0;shadow=0;sketch=0;" vertex="1" parent="1">
          <mxGeometry x="640" y="310" width="20" height="30" as="geometry" />
        </mxCell>
        <mxCell id="PyO2Ggy3WTRFLJfQddXv-59" value="" style="verticalLabelPosition=bottom;verticalAlign=top;html=1;shape=mxgraph.basic.pie;startAngle=0.1875;endAngle=0.3125;shadow=0;fillColor=#f8cecc;strokeColor=#b85450;dashed=1;rotation=355;opacity=30;" vertex="1" parent="1">
          <mxGeometry x="929.998474435598" y="209.99847443559804" width="380" height="380" as="geometry" />
        </mxCell>
        <mxCell id="PyO2Ggy3WTRFLJfQddXv-61" value="" style="endArrow=classic;html=1;rounded=0;" edge="1" parent="1">
          <mxGeometry width="50" height="50" relative="1" as="geometry">
            <mxPoint x="840" y="400" as="sourcePoint" />
            <mxPoint x="1400" y="400" as="targetPoint" />
          </mxGeometry>
        </mxCell>
        <mxCell id="PyO2Ggy3WTRFLJfQddXv-62" value="" style="endArrow=classic;html=1;rounded=0;" edge="1" parent="1">
          <mxGeometry width="50" height="50" relative="1" as="geometry">
            <mxPoint x="1120" y="680" as="sourcePoint" />
            <mxPoint x="1120" y="120" as="targetPoint" />
          </mxGeometry>
        </mxCell>
        <mxCell id="PyO2Ggy3WTRFLJfQddXv-74" value="" style="endArrow=classic;html=1;rounded=0;fontColor=#000000;strokeColor=#d6b656;curved=1;fillColor=#fff2cc;" edge="1" parent="1">
          <mxGeometry width="50" height="50" relative="1" as="geometry">
            <mxPoint x="1120" y="400" as="sourcePoint" />
            <mxPoint x="1360" y="380" as="targetPoint" />
          </mxGeometry>
        </mxCell>
        <mxCell id="PyO2Ggy3WTRFLJfQddXv-73" value="" style="verticalLabelPosition=bottom;verticalAlign=top;html=1;shape=mxgraph.basic.pie;startAngle=0.25;endAngle=0.3125;shadow=0;fillColor=#fff2cc;strokeColor=#d6b656;dashed=1;rotation=-15;opacity=30;" vertex="1" parent="1">
          <mxGeometry x="1006.88" y="286.87" width="226.25" height="226.25" as="geometry" />
        </mxCell>
        <mxCell id="PyO2Ggy3WTRFLJfQddXv-75" value="" style="verticalLabelPosition=bottom;verticalAlign=top;html=1;shape=mxgraph.basic.pie;startAngle=0.1875;endAngle=0.25;shadow=0;fillColor=#d5e8d4;strokeColor=#82b366;dashed=1;rotation=345;opacity=30;" vertex="1" parent="1">
          <mxGeometry x="1006.87" y="286.87" width="226.25" height="226.25" as="geometry" />
        </mxCell>
        <mxCell id="PyO2Ggy3WTRFLJfQddXv-76" value="$$h_y$$" style="text;html=1;strokeColor=none;fillColor=none;align=center;verticalAlign=middle;whiteSpace=wrap;rounded=0;shadow=0;sketch=0;fontColor=#000000;" vertex="1" parent="1">
          <mxGeometry x="1360" y="360" width="30" height="30" as="geometry" />
        </mxCell>
        <mxCell id="PyO2Ggy3WTRFLJfQddXv-77" value="" style="verticalLabelPosition=bottom;verticalAlign=top;html=1;shape=mxgraph.basic.pie;startAngle=0.3125;endAngle=0.375;shadow=0;fillColor=#d5e8d4;strokeColor=#82b366;dashed=1;rotation=345;opacity=30;" vertex="1" parent="1">
          <mxGeometry x="1006.87" y="286.87" width="226.25" height="226.25" as="geometry" />
        </mxCell>
        <mxCell id="PyO2Ggy3WTRFLJfQddXv-78" value="" style="verticalLabelPosition=bottom;verticalAlign=top;html=1;shape=mxgraph.basic.arc;startAngle=0.17402812283313926;endAngle=0.29784287830869854;shadow=0;sketch=0;fontColor=#000000;strokeColor=#000000;fillColor=default;gradientColor=none;" vertex="1" parent="1">
          <mxGeometry x="910" y="190.01" width="419.99" height="419.99" as="geometry" />
        </mxCell>
      </root>
    </mxGraphModel>
  </diagram>
</mxfile>
